<?xml version="1.0" encoding="utf-8"?>
<!-- Generator: Adobe Illustrator 23.0.3, SVG Export Plug-In . SVG Version: 6.00 Build 0)  -->
<svg version="1.1" id="Calque_1" xmlns="http://www.w3.org/2000/svg" xmlns:xlink="http://www.w3.org/1999/xlink" x="0px" y="0px"
	 viewBox="0 0 217 217" style="enable-background:new 0 0 217 217;" xml:space="preserve">
<style type="text/css">
	.st0{fill:#FEFEFE;}
	.st1{fill:#3E7AF1;}
</style>
<g>
	<g>
		<path class="st0" d="M109.09,217.57c-35.5,0-71-0.02-106.5,0.06c-1.96,0-2.34-0.38-2.34-2.34c0.06-70.81,0.06-141.62,0-212.43
			c0-1.96,0.38-2.34,2.34-2.34c71,0.06,142,0.06,213,0c1.95,0,2.34,0.38,2.34,2.34c-0.06,70.81-0.06,141.62,0,212.43
			c0,1.96-0.38,2.34-2.34,2.34C180.09,217.55,144.59,217.57,109.09,217.57z M159.71,65.13c0.93-4.09-1.04-8.12-3.49-12.1
			c-1.43-2.32-3.68-3.85-5.21-6.02c-3.01-4.26-7.29-6.27-12.24-6.88c-1.86-0.23-3.43-0.81-5.08-1.55c-1.91-0.86-3.42-3.23-5.44-2.83
			c-2.87,0.57-5.11-0.95-7.67-1.27c-1.25-0.16-2.42-0.49-3.54,0.33c-1.07,0.78-2.16,0.47-3.25,0.03c-3.07-1.25-6.45-1.52-9.45-3.05
			c-1.42-0.73-2.93-0.27-4.44,0.14c-3.32,0.89-6.64,0.68-9.38-1.54c-1.97-1.59-3.64-3.04-6.12-0.96c-0.6,0.5-1.46,0.02-2.2-0.13
			c-4.06-0.79-8.02,0.44-11.16,2.44c-5.16,3.3-10.48,6.61-14.31,11.65c-0.38,0.49-1.04,0.84-1.64,1.08
			c-4.35,1.73-8.77,2.56-13.36,0.83c-1.07-0.4-2.73-1.18-2.77,0.79c-0.03,1.53-0.56,2.85-0.69,4.23c-0.21,2.18-2.19,4.1-0.8,6.55
			c1.86,3.28,0.81,6.72-0.15,9.98c-1.01,3.4-6.85,7.44-10.01,6.82c-2.05-0.4-3.17,0.29-4.28,1.71c-0.93,1.19-1.95,2.32-2.97,3.43
			c-0.48,0.52-1.02,1.13-0.63,1.75c2.14,3.34,1.46,6.91,1.08,10.49c-0.1,0.98,0.64,1.73,1.1,2.56c2.41,4.45,7.46,6.59,9.7,11.24
			c1.32,2.75,4.84,4.41,3.91,8.32c-0.22,0.93,0.59,1.7,1.61,2.09c1.42,0.54,2.77,1.75,2.68,3.07c-0.2,2.99,1.19,6.15-0.34,8.93
			c-1.68,3.05-0.35,5.65,0.86,8.11c0.96,1.94,0.87,4.73,3.42,5.64c2.06,0.73,3.58,2.17,4.96,3.65c1.92,2.05,5.38,3.49,4.81,6.83
			c-0.58,3.37,1.46,3.67,3.54,4.2c1.55,0.4,3.22,0.34,4.79,0.69c4.64,1.03,9.65,1.75,12.24,6.33c2.89,5.09,7,7.49,12.72,7.53
			c0.91,0.01,1.31,0.84,1.76,1.64c2.1,3.74,6.41,3.97,9.78,5.19c1.95,0.7,4.55,0.43,6.65,1.64c1.83,1.06,3.8,1.75,5.86,2.06
			c1.76,0.27,3.25,1.16,4.61,2.1c2.55,1.75,5.9,2.24,8.14,1.59c3.3-0.95,5.22,0.56,7.03,2.07c2.16,1.81,3.94,2,6.44,1.03
			c2.16-0.84,4.59-1.52,6.41,0.99c0.54,0.75,1.42,0.63,2.02,0.06c2.59-2.44,7.12-0.33,9.23-3.95c0.13-0.22,1.08-0.05,1.62,0.08
			c6.46,1.57,12.16-2.27,18.35-2.59c0.09,0,0.19-0.06,0.25-0.12c0.96-1.15,2.2-1.05,3.39-0.64c1.41,0.49,2.66,0.2,3.81-0.54
			c2.07-1.34,4.4-2.48,5.99-4.26c1.48-1.65,4.07-3.49,3.1-6.04c-1.93-5.08-0.13-10.29-1.28-15.48c-1.13-5.14,0.19-10.67,1.48-15.86
			c0.52-2.1,0.99-4.6,2.93-6.02c1.93-1.41,2.33-3.13,1.8-5.21c-0.31-1.2-0.19-1.74,1.2-1.85c1.04-0.08,2.36-0.59,1.86-1.92
			c-1.13-2.99,0.93-6.68-2.09-9.22c-0.17-0.14-0.17-0.54-0.17-0.82c0.01-1.78-1.25-2.67-2.64-2.93c-1.91-0.36-3.13-1.52-4.41-2.75
			c-1.37-1.33-2.69-2.63-4.96-1.9c-1.01,0.33-1.7-0.69-2.18-1.51c-2.76-4.84-6.37-9.01-10.02-13.18c-1.59-1.82-4-3.65-3.67-6.21
			c0.53-4.14-2.12-6.59-4.65-8.18c-2.65-1.66-3.41-3.74-3.93-6.24C159.84,69.54,159.9,67.7,159.71,65.13z"/>
		<path class="st1" d="M159.71,65.13c0.19,2.57,0.13,4.41,0.5,6.16c0.53,2.5,1.28,4.58,3.93,6.24c2.54,1.59,5.19,4.04,4.65,8.18
			c-0.33,2.56,2.08,4.39,3.67,6.21c3.65,4.17,7.26,8.34,10.02,13.18c0.47,0.83,1.17,1.84,2.18,1.51c2.27-0.73,3.59,0.57,4.96,1.9
			c1.28,1.23,2.49,2.39,4.41,2.75c1.38,0.26,2.64,1.15,2.64,2.93c0,0.28,0,0.67,0.17,0.82c3.02,2.54,0.96,6.23,2.09,9.22
			c0.5,1.33-0.82,1.84-1.86,1.92c-1.39,0.1-1.51,0.64-1.2,1.85c0.53,2.07,0.13,3.8-1.8,5.21c-1.94,1.41-2.4,3.92-2.93,6.02
			c-1.29,5.19-2.61,10.72-1.48,15.86c1.14,5.19-0.66,10.4,1.28,15.48c0.97,2.55-1.62,4.39-3.1,6.04c-1.59,1.78-3.93,2.93-5.99,4.26
			c-1.14,0.74-2.4,1.03-3.81,0.54c-1.19-0.41-2.44-0.51-3.39,0.64c-0.06,0.07-0.16,0.12-0.25,0.12c-6.19,0.33-11.89,4.16-18.35,2.59
			c-0.54-0.13-1.49-0.3-1.62-0.08c-2.12,3.62-6.64,1.51-9.23,3.95c-0.6,0.57-1.48,0.69-2.02-0.06c-1.82-2.51-4.25-1.83-6.41-0.99
			c-2.49,0.97-4.28,0.77-6.44-1.03c-1.81-1.51-3.73-3.02-7.03-2.07c-2.23,0.64-5.58,0.16-8.14-1.59c-1.36-0.93-2.85-1.83-4.61-2.1
			c-2.07-0.32-4.04-1.01-5.86-2.06c-2.09-1.21-4.69-0.93-6.65-1.64c-3.37-1.22-7.67-1.45-9.78-5.19c-0.45-0.8-0.85-1.64-1.76-1.64
			c-5.72-0.04-9.83-2.44-12.72-7.53c-2.6-4.57-7.61-5.3-12.24-6.33c-1.57-0.35-3.23-0.29-4.79-0.69c-2.08-0.53-4.12-0.84-3.54-4.2
			c0.58-3.34-2.89-4.78-4.81-6.83c-1.38-1.47-2.9-2.92-4.96-3.65c-2.55-0.91-2.46-3.69-3.42-5.64c-1.22-2.46-2.54-5.06-0.86-8.11
			c1.53-2.78,0.14-5.94,0.34-8.93c0.09-1.32-1.26-2.53-2.68-3.07c-1.02-0.39-1.83-1.16-1.61-2.09c0.93-3.91-2.58-5.56-3.91-8.32
			c-2.24-4.66-7.29-6.79-9.7-11.24c-0.45-0.84-1.2-1.59-1.1-2.56c0.38-3.58,1.06-7.15-1.08-10.49c-0.39-0.61,0.15-1.23,0.63-1.75
			c1.02-1.11,2.04-2.24,2.97-3.43c1.12-1.43,2.24-2.12,4.28-1.71c3.16,0.62,9-3.41,10.01-6.82c0.96-3.26,2.01-6.7,0.15-9.98
			c-1.39-2.46,0.59-4.37,0.8-6.55c0.13-1.38,0.67-2.71,0.69-4.23c0.03-1.97,1.69-1.19,2.77-0.79c4.59,1.72,9,0.9,13.36-0.83
			c0.6-0.24,1.27-0.58,1.64-1.08c3.83-5.04,9.16-8.36,14.31-11.65c3.13-2,7.09-3.23,11.16-2.44c0.74,0.15,1.61,0.63,2.2,0.13
			c2.48-2.08,4.15-0.64,6.12,0.96c2.75,2.22,6.06,2.44,9.38,1.54c1.51-0.41,3.02-0.86,4.44-0.14c3,1.53,6.38,1.8,9.45,3.05
			c1.09,0.44,2.17,0.76,3.25-0.03c1.12-0.82,2.29-0.49,3.54-0.33c2.56,0.32,4.79,1.84,7.67,1.27c2.02-0.4,3.53,1.97,5.44,2.83
			c1.65,0.75,3.22,1.33,5.08,1.55c4.95,0.6,9.23,2.61,12.24,6.88c1.53,2.16,3.78,3.69,5.21,6.02
			C158.66,57.01,160.64,61.04,159.71,65.13z"/>
	</g>
</g>
</svg>
