<?xml version="1.0" encoding="utf-8"?>
<!-- Generator: Adobe Illustrator 23.0.3, SVG Export Plug-In . SVG Version: 6.00 Build 0)  -->
<svg version="1.1" id="Calque_1" xmlns="http://www.w3.org/2000/svg" xmlns:xlink="http://www.w3.org/1999/xlink" x="0px" y="0px"
	 viewBox="0 0 217 217" style="enable-background:new 0 0 217 217;" xml:space="preserve">
<style type="text/css">
	.st0{fill:#06D6A0;}
	.st1{fill:#118AB2;}
</style>
<g>
	<g>
		<path class="st0" d="M158.63,66.25c0.69,2.03,0.97,3.71,1.84,5.22c1.12,1.95,2.15,3.71,5.56,4.74c3.32,1.01,6.75,2.92,7.02,6.43
			c0.17,2.21,3.06,3.47,5.14,4.79c5.18,3.29,10.39,6.53,14.6,10.55c0.63,0.6,1.67,1.31,2.54,0.99c2.57-0.95,4.47,0.09,6.36,1.14
			c1.62,0.91,3.14,1.67,5.3,1.78c1.74,0.08,3.49,0.75,3.78,2.39c0.03,0.16,0.08,0.39,0.23,0.46c3.98,1.83,2.3,5.24,4.32,7.62
			c0.61,0.72,0.12,1.48-0.74,1.6c-2.9,0.41-2.38,1.58-1.53,3.12c0.44,0.81,0.46,2-0.35,2.59c-4.39,3.2-3.1,7.52-3.32,11.45
			c-0.22,3.94,0.86,7.85,2.92,11.65c1.29,2.38,0.54,5.02,1.7,7.51c0.77,1.67,2.73,3.21,1.28,5.33c-2.28,3.32-5.55,5.81-9.69,7.78
			c-0.09,0.04-0.21,0.11-0.3,0.09c-4.49-0.81-7.48,2.13-11.65,2.18c-0.93,0.01-1.96,0.35-2.7,0.76c-3.66,2.06-8.03,2.25-12.46,2.33
			c-0.65,0.01-1.78-0.14-1.89,0.05c-1.79,3.22-7.25,2.06-9.8,4.32c-0.61,0.54-1.57,0.85-2.32,0.3c-2.87-2.1-5.49-1.08-8.07-0.03
			c-2.29,0.93-4.32,0.9-6.77-0.2c-2.7-1.21-5.2-2.31-9.03-1.2c-2.35,0.68-6.37,0.89-9.66-0.58c-1.52-0.68-3.4-1.2-5.37-1.25
			c-2.66-0.06-5.26-0.49-7.77-1.29c-2.44-0.77-4.88-1.16-7.39-0.37c-1.94,0.61-3.07-1.05-4.83-1.18c-3.19-0.24-6.47-0.46-8.2-3.11
			c-0.18-0.28-1-0.54-1.46-0.5c-6.68,0.58-11.98-1.12-16.36-5.2c-3.85-3.58-9.63-3.55-15.01-4.02c-1.42-0.12-2.87-0.07-4.3-0.05
			c-4.54,0.05-5.05-0.29-6.46-3.58c-0.56-1.31-1.47-2.43-3.35-3.26c-3.62-1.6-6.87-3.61-10.88-4.76c-2.44-0.7-2.71-2.94-4.28-4.34
			c-2.17-1.93-3.3-4.09-2.29-6.63c1.03-2.61-1.25-5.08-1.5-7.68c-0.1-0.98-1.85-1.87-3.47-2.18c-1.2-0.22-2.39-0.69-2.35-1.54
			c0.17-3.48-4.15-4.63-6.31-6.9c-3.48-3.66-9.56-4.91-13.13-8.4c-0.75-0.73-1.87-1.34-1.92-2.29c-0.16-3.04-0.3-6.04-3.24-8.61
			c-0.66-0.58-0.1-1.21,0.43-1.77c0.85-0.91,1.6-1.88,2.37-2.84c1.11-1.39,2.13-2.45,4.99-2.25c3.76,0.26,9.5-3.95,9.94-6.99
			c0.42-2.9,0.71-5.86-1.89-8.56c-2.06-2.13-0.04-4.25-0.18-6.38c-0.04-0.53,0.46-1.15,0.11-1.8c-1.29-2.4,0.47-2.43,2.86-2.02
			c5.46,0.95,10.27-0.18,14.81-2.09c0.73-0.31,1.52-0.72,1.9-1.24c3.36-4.73,8.87-8.08,14.11-11.44c3.15-2.02,7.48-3.53,12.33-3.17
			c0.9,0.07,1.94,0.3,2.53-0.2c2.33-1.95,4.42-0.94,6.91,0.18c3.69,1.66,7.62,1.56,11.35,0.33c1.43-0.47,2.88-0.94,4.42-0.61
			c3.34,0.71,6.73,1.02,10.12,1.42c2.31,0.27,4.49,0.85,6.47-0.56c0.88-0.62,2.32-0.19,3.53-0.1c5.77,0.45,11.7,0.01,17.09,2.48
			c0.89,0.41,2.08,0.46,3.23,0.4c6.35-0.29,11.89,1.12,16.68,4.59c2.73,1.98,5.83,3.6,8.4,5.79
			C156.84,60.22,158.31,63.25,158.63,66.25z"/>
	</g>
</g>
<path class="st1" d="M53.91,49.2c-7.36-10.66-8.72-11.76-8.72-15.68c0-5.37,4.35-9.72,9.72-9.72s9.72,4.35,9.72,9.72
	c0,3.92-1.37,5.01-8.72,15.68C55.43,49.89,54.39,49.89,53.91,49.2L53.91,49.2z M54.91,37.57c2.24,0,4.05-1.81,4.05-4.05
	s-1.81-4.05-4.05-4.05s-4.05,1.81-4.05,4.05S52.67,37.57,54.91,37.57z"/>
<path class="st1" d="M150.14,125.68c-7.36-10.66-8.72-11.76-8.72-15.68c0-5.37,4.35-9.72,9.72-9.72s9.72,4.35,9.72,9.72
	c0,3.92-1.37,5.01-8.72,15.68C151.66,126.37,150.62,126.37,150.14,125.68L150.14,125.68z M151.14,114.05c2.24,0,4.05-1.81,4.05-4.05
	s-1.81-4.05-4.05-4.05c-2.24,0-4.05,1.81-4.05,4.05S148.9,114.05,151.14,114.05z"/>
<path class="st1" d="M117.22,161.92c-7.36-10.66-8.72-11.76-8.72-15.68c0-5.37,4.35-9.72,9.72-9.72c5.37,0,9.72,4.35,9.72,9.72
	c0,3.92-1.37,5.01-8.72,15.68C118.74,162.61,117.7,162.61,117.22,161.92L117.22,161.92z M118.22,150.29c2.24,0,4.05-1.81,4.05-4.05
	c0-2.24-1.81-4.05-4.05-4.05c-2.24,0-4.05,1.81-4.05,4.05C114.17,148.48,115.98,150.29,118.22,150.29z"/>
<path class="st1" d="M49.86,128.92c-7.36-10.66-8.72-11.76-8.72-15.68c0-5.37,4.35-9.72,9.72-9.72s9.72,4.35,9.72,9.72
	c0,3.92-1.37,5.01-8.72,15.68C51.38,129.61,50.34,129.61,49.86,128.92L49.86,128.92z M50.86,117.29c2.24,0,4.05-1.81,4.05-4.05
	s-1.81-4.05-4.05-4.05s-4.05,1.81-4.05,4.05S48.62,117.29,50.86,117.29z"/>
<path class="st1" d="M82.79,81.76C75.44,71.09,74.07,70,74.07,66.08c0-5.37,4.35-9.72,9.72-9.72c5.37,0,9.72,4.35,9.72,9.72
	c0,3.92-1.37,5.01-8.72,15.68C84.31,82.45,83.27,82.45,82.79,81.76L82.79,81.76z M83.79,70.13c2.24,0,4.05-1.81,4.05-4.05
	c0-2.24-1.81-4.05-4.05-4.05s-4.05,1.81-4.05,4.05C79.74,68.32,81.55,70.13,83.79,70.13z"/>
<path class="st1" d="M138.47,67.81c-7.36-10.66-8.72-11.76-8.72-15.68c0-5.37,4.35-9.72,9.72-9.72s9.72,4.35,9.72,9.72
	c0,3.92-1.37,5.01-8.72,15.68C139.99,68.51,138.95,68.51,138.47,67.81L138.47,67.81z M139.47,56.19c2.24,0,4.05-1.81,4.05-4.05
	c0-2.24-1.81-4.05-4.05-4.05c-2.24,0-4.05,1.81-4.05,4.05C135.42,54.37,137.23,56.19,139.47,56.19z"/>
<path class="st1" d="M23.75,68.8c-7.36-10.66-8.72-11.76-8.72-15.68c0-5.37,4.35-9.72,9.72-9.72s9.72,4.35,9.72,9.72
	c0,3.92-1.37,5.01-8.72,15.68C25.27,69.49,24.23,69.49,23.75,68.8L23.75,68.8z M24.75,57.17c2.24,0,4.05-1.81,4.05-4.05
	c0-2.24-1.81-4.05-4.05-4.05s-4.05,1.81-4.05,4.05C20.7,55.36,22.51,57.17,24.75,57.17z"/>
<path class="st1" d="M192.23,154.63c-7.36-10.66-8.72-11.76-8.72-15.68c0-5.37,4.35-9.72,9.72-9.72s9.72,4.35,9.72,9.72
	c0,3.92-1.37,5.01-8.72,15.68C193.75,155.32,192.71,155.32,192.23,154.63L192.23,154.63z M193.23,143c2.24,0,4.05-1.81,4.05-4.05
	c0-2.24-1.81-4.05-4.05-4.05c-2.24,0-4.05,1.81-4.05,4.05C189.18,141.19,190.99,143,193.23,143z"/>
</svg>
