<?xml version="1.0" encoding="utf-8"?>
<!-- Generator: Adobe Illustrator 23.0.3, SVG Export Plug-In . SVG Version: 6.00 Build 0)  -->
<svg version="1.1" id="ae8e3b67-68ad-47ca-99a9-8e5b053c0a6f"
	 xmlns="http://www.w3.org/2000/svg" xmlns:xlink="http://www.w3.org/1999/xlink" x="0px" y="0px" viewBox="0 0 974.76 674.09"
	 style="enable-background:new 0 0 974.76 674.09;" xml:space="preserve">
<style type="text/css">
	.st0{fill:#118AB2;}
	.st1{fill:#073B4C;}
	.st2{fill:#FFB9B9;}
	.st3{fill:#2F2E41;}
	.st4{fill:#E6E6E6;}
	.st5{fill:#FFFFFF;}
	.st6{fill:#06D6A0;}
	.st7{fill:#3F3D56;}
</style>
<path class="st0" d="M88.1,294.41c-18.05,14.76,11.48,144.37,11.48,144.37s6.56,197.69,20.51,206.71s45.12-0.82,57.42-2.46
	s1.64-123.86-16.41-168.98S157,363.31,157,363.31l97.61,18.87c0,0-59.06,50.04-56.6,60.7s65.62,46.76,77.11,48.4
	s33.63-65.62,53.32-111.56s-134.52-75.47-134.52-75.47l-21.33-40.19C172.58,264.06,106.14,279.64,88.1,294.41z"/>
<path class="st1" d="M137.09,648.89c0,0-5.95,20.83,0,20.83s16.87,5.95,33.73,3.97s11.9-22.82,0-25.79s-8.93-26.79-8.93-26.79
	c-3.97-7.94-22.82,1.98-22.82,1.98L137.09,648.89z"/>
<path class="st1" d="M221.59,483.22c0,0-10.21,19.11-4.39,20.36s15.23,9.38,32.13,10.99s16.45-19.79,5.44-25.21
	s-3.08-28.07-3.08-28.07c-2.21-8.59-22.72-2.87-22.72-2.87L221.59,483.22z"/>
<path class="st2" d="M99.17,116.82c1.64,3.28-5.74,44.29-5.74,44.29l6.56,11.48c0,0,37.73-14.76,31.99-17.23
	c-5.74-2.46-4.92-32.81-4.92-32.81S97.53,113.54,99.17,116.82z"/>
<circle class="st1" cx="113.37" cy="79.17" r="50.29"/>
<circle class="st1" cx="109.9" cy="32.08" r="20.81"/>
<path class="st3" d="M119.01,41.51c0.72,0.07,1.44,0.11,2.17,0.11c11.49,0,20.81-9.32,20.81-20.81C141.99,9.32,132.67,0,121.18,0
	c-0.72,0-1.45,0.04-2.17,0.11c11.43,1.2,19.73,11.44,18.53,22.87C136.51,32.76,128.79,40.49,119.01,41.51z"/>
<circle class="st2" cx="114.76" cy="103.69" r="34.45"/>
<path class="st4" d="M65.13,156.6c-10.66,2.46-28.71,28.71-28.71,28.71l28.71,28.71c0,0,20.51,77.11,22.97,80.39
	c16.12,21.5,88.59-26.25,88.59-26.25s-2.87-23.38-1.23-34.86c1.58-11.04-6.15-33.22-6.15-33.22s27.07-11.48,21.33-22.97
	s-41.01-37.73-55.78-28.71c-14.76,9.02-44.29,0-44.29,0S75.79,154.14,65.13,156.6z"/>
<path class="st2" d="M274.71,321.89c0,0,46.76,40.19,58.24,31.99s-44.29-36.91-44.29-36.91L274.71,321.89z"/>
<path class="st2" d="M64.72,307.94c6.56,7.38,37.73-11.48,33.74-19.86s-28.81,8.38-28.81,8.38S58.16,300.56,64.72,307.94z"/>
<path class="st4" d="M65.13,196.8l-34.45,63.98c0,0,39.37,32.81,44.29,33.63s-9.84,22.15-9.84,22.15S20.83,285.39,3.61,269.8
	s32.81-84.49,32.81-84.49l14.76-9.02L65.13,196.8z"/>
<path class="st4" d="M165.2,194.33l40.19,62.34c0,0,61.52,68.9,69.72,72.18s18.05-12.3,18.05-12.3l-73.82-89.41l-27.89-50.04
	l-10.66-4.1L165.2,194.33z"/>
<ellipse class="st1" cx="113.37" cy="62.76" rx="34.69" ry="20.81"/>
<path class="st4" d="M210.68,511.79c-2.37,0-4.29,1.92-4.29,4.29v146.24c0,2.37,1.92,4.29,4.29,4.29h498.67
	c2.37,0,4.28-1.92,4.29-4.29V516.08c0-2.37-1.92-4.29-4.29-4.29L210.68,511.79z"/>
<path class="st5" d="M217.13,655.86h485.75V522.53H217.13V655.86z"/>
<path class="st6" d="M641.57,628.2c-3.92-0.01-7.11,3.16-7.12,7.09c-0.01,3.92,3.16,7.11,7.09,7.12c0.01,0,0.02,0,0.03,0h28.41
	c3.92,0.01,7.11-3.17,7.11-7.09s-3.17-7.11-7.09-7.11c-0.01,0-0.02,0-0.02,0H641.57z"/>
<rect x="349.12" y="614.43" class="st4" width="327.97" height="1.87"/>
<circle class="st6" cx="280.57" cy="589.2" r="41.37"/>
<polygon class="st7" points="349.64,603.99 348.6,602.44 382.68,579.72 406.05,590.93 439.67,569.46 506.54,597.98 559.79,571.83 
	611.49,592.79 676.47,535.24 677.71,536.64 611.87,594.96 559.86,573.87 506.59,600.04 439.84,571.57 406.18,593.07 382.83,581.86 
	"/>
<path class="st4" d="M355.2,629.18c-3.35-0.01-6.08,2.71-6.09,6.06c-0.01,3.35,2.71,6.08,6.06,6.09c0.01,0,0.02,0,0.03,0h63.54
	c3.35-0.01,6.07-2.73,6.06-6.09c-0.01-3.34-2.72-6.05-6.06-6.06H355.2z"/>
<path class="st5" d="M296.37,570.69h6.46L289.38,584c-4.89,4.82-12.74,4.82-17.63,0l-13.45-13.31h6.46l10.22,10.11
	c3.1,3.05,8.07,3.05,11.17,0L296.37,570.69z M264.68,607.71h-6.46l13.53-13.39c4.89-4.82,12.74-4.82,17.63,0l13.53,13.39h-6.46
	l-10.3-10.19c-3.1-3.05-8.07-3.05-11.17,0L264.68,607.71z"/>
<path class="st4" d="M275.61,43.35c-2.37,0-4.29,1.92-4.29,4.29v146.24c0,2.37,1.92,4.29,4.29,4.29h498.67
	c2.37,0,4.28-1.92,4.29-4.29V47.64c0-2.37-1.92-4.29-4.29-4.29L275.61,43.35z"/>
<path class="st5" d="M282.07,187.43h485.75V54.1H282.07V187.43z"/>
<path class="st6" d="M706.51,159.77c-3.92,0-7.11,3.17-7.11,7.09c0,3.92,3.17,7.11,7.09,7.11c0.01,0,0.01,0,0.02,0h28.41
	c3.92,0,7.1-3.19,7.09-7.11c0-3.92-3.18-7.09-7.09-7.09H706.51z"/>
<rect x="414.06" y="145.99" class="st4" width="327.97" height="1.87"/>
<circle class="st6" cx="345.5" cy="120.76" r="41.37"/>
<polygon class="st7" points="414.58,135.56 413.54,134 447.62,111.28 470.99,122.5 504.6,101.02 505.06,101.22 571.47,129.55 
	624.72,103.39 676.43,124.35 741.4,66.81 742.64,68.2 676.8,126.52 624.79,105.44 571.53,131.6 504.78,103.13 471.12,124.64 
	447.77,113.43 "/>
<path class="st4" d="M420.13,160.75c-3.35,0-6.07,2.72-6.07,6.07c0,3.35,2.72,6.07,6.07,6.07h63.54c3.35,0,6.07-2.72,6.07-6.07
	c0-3.35-2.72-6.07-6.07-6.07H420.13z"/>
<path class="st5" d="M362.15,115.94c0.77-5.18-3.17-7.96-8.56-9.82l1.75-7.01l-4.27-1.06l-1.7,6.83c-1.12-0.28-2.27-0.54-3.42-0.8
	l1.71-6.87l-4.27-1.06l-1.75,7.01c-0.93-0.21-1.84-0.42-2.73-0.64l0-0.02l-5.89-1.47l-1.14,4.56c0,0,3.17,0.73,3.1,0.77
	c1.23,0.15,2.11,1.25,1.99,2.48l-1.99,7.99c0.15,0.04,0.3,0.09,0.44,0.14l-0.45-0.11l-2.79,11.19c-0.26,0.82-1.13,1.27-1.95,1.02
	c0,0-0.01,0-0.01,0c0.04,0.06-3.1-0.77-3.1-0.77l-2.12,4.89l5.56,1.38c1.03,0.26,2.05,0.53,3.04,0.79l-1.77,7.09l4.26,1.06
	l1.75-7.02c1.16,0.32,2.29,0.61,3.4,0.88l-1.74,6.98l4.27,1.06l1.77-7.08c7.28,1.38,12.75,0.82,15.06-5.76
	c1.86-5.3-0.09-8.36-3.92-10.35C359.48,121.56,361.59,119.73,362.15,115.94L362.15,115.94z M352.39,129.61
	c-1.32,5.3-10.24,2.44-13.14,1.72l2.34-9.4C344.49,122.65,353.77,124.08,352.39,129.61L352.39,129.61z M353.71,115.86
	c-1.2,4.82-8.63,2.37-11.04,1.77l2.13-8.52C347.2,109.71,354.97,110.83,353.71,115.86L353.71,115.86z"/>
<path class="st4" d="M471.8,277.57c-2.37,0-4.29,1.92-4.29,4.29V428.1c0,2.37,1.92,4.29,4.29,4.29h498.67
	c2.37,0,4.28-1.92,4.29-4.29V281.86c0-2.37-1.92-4.29-4.29-4.29L471.8,277.57z"/>
<path class="st5" d="M478.26,421.65h485.75V288.32H478.26V421.65z"/>
<path class="st6" d="M902.7,393.99c-3.92,0-7.11,3.17-7.11,7.09c0,3.92,3.17,7.11,7.09,7.11c0.01,0,0.01,0,0.02,0h28.41
	c3.92,0,7.11-3.17,7.11-7.09c0-3.92-3.17-7.11-7.09-7.11c-0.01,0-0.01,0-0.02,0H902.7L902.7,393.99z"/>
<rect x="610.24" y="380.21" class="st4" width="327.97" height="1.87"/>
<ellipse transform="matrix(0.1602 -0.9871 0.9871 0.1602 104.5214 832.8142)" class="st6" cx="541.69" cy="354.98" rx="41.37" ry="41.37"/>
<polygon class="st7" points="610.76,369.77 609.72,368.22 643.8,345.5 667.18,356.72 700.79,335.24 701.24,335.43 767.66,363.77 
	820.91,337.61 872.62,358.57 937.59,301.02 938.83,302.42 872.99,360.74 820.98,339.65 767.71,365.82 700.97,337.35 667.3,358.85 
	643.96,347.65 "/>
<path class="st4" d="M616.32,394.96c-3.35,0-6.07,2.73-6.07,6.08c0,3.35,2.72,6.06,6.07,6.07h63.54c3.35,0,6.07-2.72,6.07-6.07
	c0-3.35-2.72-6.07-6.07-6.07L616.32,394.96z"/>
<polygon class="st5" points="541.68,382.25 558.43,358.66 541.68,368.55 541.68,368.55 524.95,358.66 541.68,382.25 541.68,382.25 
	541.68,382.25 541.68,382.25 "/>
<polygon class="st5" points="541.68,365.38 541.68,365.38 541.68,365.38 541.68,365.38 558.42,355.49 541.68,327.72 541.68,327.72 
	541.68,327.72 541.68,327.72 541.68,327.72 524.95,355.49 "/>
</svg>
