<?xml version="1.0" encoding="utf-8"?>
<!-- Generator: Adobe Illustrator 23.0.3, SVG Export Plug-In . SVG Version: 6.00 Build 0)  -->
<svg version="1.1" id="fb0462f1-4822-46c6-85a1-002b71cfcb82"
	 xmlns="http://www.w3.org/2000/svg" xmlns:xlink="http://www.w3.org/1999/xlink" x="0px" y="0px" viewBox="0 0 781.21 529.88"
	 style="enable-background:new 0 0 781.21 529.88;" xml:space="preserve">
<style type="text/css">
	.st0{fill:#3F3D56;}
	.st1{fill:none;stroke:#3F3D56;stroke-width:2;stroke-miterlimit:10;}
	.st2{fill:#06D6A0;}
	.st3{fill:#073B4C;}
</style>
<title>nakamoto</title>
<rect x="114.21" y="117" class="st0" width="2" height="107"/>
<rect x="114.21" y="255.85" class="st0" width="2" height="94.15"/>
<rect x="111.21" y="365" class="st0" width="155" height="2"/>
<rect x="45.21" y="392" class="st0" width="2" height="85"/>
<rect x="63.21" y="492" class="st0" width="235" height="2"/>
<path class="st1" d="M314.21,477"/>
<path class="st1" d="M314.21,395"/>
<rect x="492.21" y="49" class="st0" width="2" height="101"/>
<rect x="330.18" y="166" class="st0" width="147.03" height="2"/>
<rect x="313.21" y="182" class="st0" width="2" height="135"/>
<path class="st0" d="M115.21,257c-9.39,0-17-7.61-17-17s7.61-17,17-17s17,7.61,17,17C132.2,249.38,124.6,256.99,115.21,257z
	 M115.21,225c-8.28,0-15,6.72-15,15s6.72,15,15,15s15-6.72,15-15C130.2,231.72,123.49,225.01,115.21,225z"/>
<path class="st0" d="M47.21,510c-9.39,0-17-7.61-17-17s7.61-17,17-17s17,7.61,17,17l0,0C64.2,502.38,56.6,509.99,47.21,510z
	 M47.21,478c-8.28,0-15,6.72-15,15s6.72,15,15,15s15-6.72,15-15l0,0C62.2,484.72,55.49,478.01,47.21,478z"/>
<circle class="st2" cx="116.21" cy="366" r="16"/>
<rect x="529.21" y="239" class="st0" width="166" height="2"/>
<rect x="512.21" y="255.85" class="st0" width="2" height="94.15"/>
<rect x="363.21" y="365" class="st0" width="133" height="2"/>
<rect x="597.21" y="374" class="st0" width="138" height="2"/>
<rect x="581.21" y="392" class="st0" width="2" height="85"/>
<rect x="330.21" y="492" class="st0" width="235" height="2"/>
<rect x="313.21" y="415" class="st0" width="2" height="62"/>
<circle class="st2" cx="513.21" cy="240" r="16"/>
<path class="st0" d="M493.21,183c-9.39,0-17-7.61-17-17s7.61-17,17-17s17,7.61,17,17C510.2,175.38,502.6,182.99,493.21,183z
	 M493.21,151c-8.28,0-15,6.72-15,15s6.72,15,15,15s15-6.72,15-15C508.2,157.72,501.49,151.01,493.21,151L493.21,151z"/>
<path class="st0" d="M314.21,183c-9.39,0-17-7.61-17-17s7.61-17,17-17s17,7.61,17,17C331.2,175.38,323.6,182.99,314.21,183z
	 M314.21,151c-8.28,0-15,6.72-15,15s6.72,15,15,15s15-6.72,15-15C329.2,157.72,322.49,151.01,314.21,151L314.21,151z"/>
<path class="st0" d="M581.21,393c-9.39,0-17-7.61-17-17s7.61-17,17-17s17,7.61,17,17l0,0C598.2,385.38,590.6,392.99,581.21,393z
	 M581.21,361c-8.28,0-15,6.72-15,15s6.72,15,15,15s15-6.72,15-15l0,0C596.2,367.72,589.49,361.01,581.21,361z"/>
<circle class="st2" cx="581.21" cy="493" r="16"/>
<path class="st0" d="M314.21,510c-9.39,0-17-7.61-17-17s7.61-17,17-17s17,7.61,17,17l0,0C331.2,502.38,323.6,509.99,314.21,510z
	 M314.21,478c-8.28,0-15,6.72-15,15s6.72,15,15,15s15-6.72,15-15l0,0C329.2,484.72,322.49,478.01,314.21,478z"/>
<path class="st0" d="M512.21,383c-9.39,0-17-7.61-17-17s7.61-17,17-17s17,7.61,17,17l0,0C529.2,375.38,521.6,382.99,512.21,383z
	 M512.21,351c-8.28,0-15,6.72-15,15s6.72,15,15,15s15-6.72,15-15C527.2,357.72,520.49,351.01,512.21,351z"/>
<path class="st3" d="M47.21,342c-11.05,0-20,8.95-20,20s8.95,20,20,20s20-8.95,20-20C67.18,350.97,58.25,342.03,47.21,342z
	 M47.21,348c3.31,0,6,2.69,6,6s-2.69,6-6,6s-6-2.69-6-6C41.22,350.69,43.9,348.01,47.21,348z M47.21,376.88
	c-4.81-0.02-9.3-2.42-12-6.4c0.1-4,8-6.2,12-6.2s11.9,2.2,12,6.2C56.51,374.46,52.02,376.86,47.21,376.88z"/>
<path class="st3" d="M116.21,69c-11.05,0-20,8.95-20,20s8.95,20,20,20s20-8.95,20-20C136.18,77.97,127.25,69.03,116.21,69z
	 M116.21,75c3.31,0,6,2.69,6,6s-2.69,6-6,6s-6-2.69-6-6C110.22,77.69,112.9,75.01,116.21,75z M116.21,103.88
	c-4.81-0.02-9.3-2.42-12-6.4c0.1-4,8-6.2,12-6.2s11.9,2.2,12,6.2C125.51,101.46,121.02,103.86,116.21,103.88z"/>
<path class="st3" d="M493.21,0c-11.05,0-20,8.95-20,20s8.95,20,20,20s20-8.95,20-20C513.18,8.97,504.25,0.03,493.21,0z M493.21,6
	c3.31,0,6,2.69,6,6s-2.69,6-6,6s-6-2.69-6-6C487.22,8.69,489.9,6.01,493.21,6z M493.21,34.88c-4.81-0.02-9.3-2.42-12-6.4
	c0.1-4,8-6.2,12-6.2s11.9,2.2,12,6.2C502.51,32.46,498.02,34.86,493.21,34.88z"/>
<path class="st3" d="M723.21,219c-11.05,0-20,8.95-20,20s8.95,20,20,20c11.05,0,20-8.95,20-20
	C743.18,227.97,734.25,219.03,723.21,219z M723.21,225c3.31,0,6,2.69,6,6s-2.69,6-6,6s-6-2.69-6-6
	C717.22,227.69,719.9,225.01,723.21,225z M723.21,253.88c-4.81-0.02-9.3-2.42-12-6.4c0.1-4,8-6.2,12-6.2s11.9,2.2,12,6.2
	C732.51,251.46,728.02,253.86,723.21,253.88z"/>
<path class="st3" d="M761.21,354c-11.05,0-20,8.95-20,20s8.95,20,20,20s20-8.95,20-20C781.18,362.97,772.25,354.03,761.21,354z
	 M761.21,360c3.31,0,6,2.69,6,6s-2.69,6-6,6s-6-2.69-6-6C755.22,362.69,757.9,360.01,761.21,360z M761.21,388.88
	c-4.81-0.02-9.3-2.42-12-6.4c0.1-4,8-6.2,12-6.2s11.9,2.2,12,6.2C770.51,386.46,766.02,388.86,761.21,388.88z"/>
<path class="st2" d="M315.49,353.67l-2.05,8.21c2.32,0.58,9.48,2.94,10.64-1.71C325.29,355.33,317.81,354.25,315.49,353.67z"/>
<path class="st2" d="M312.41,366.03l-2.26,9.06c2.79,0.69,11.39,3.45,12.66-1.65C324.14,368.1,315.2,366.72,312.41,366.03z"/>
<path class="st2" d="M324.75,329.21c-20.09-5.01-40.44,7.22-45.45,27.31s7.22,40.44,27.31,45.45c20.09,5.01,40.44-7.22,45.45-27.31
	c5.01-20.09-7.21-40.44-27.3-45.45C324.76,329.21,324.76,329.21,324.75,329.21z M332.22,360.25c-0.54,3.65-2.57,5.42-5.25,6.04
	c3.69,1.92,5.57,4.87,3.78,9.98c-2.22,6.35-7.5,6.88-14.51,5.55l-1.7,6.82l-4.11-1.02l1.68-6.73c-1.1-0.27-2.19-0.55-3.28-0.85
	l-1.69,6.76l-4.11-1.03l1.7-6.84c-0.96-0.25-1.94-0.51-2.93-0.76l-5.35-1.34l2.04-4.71c0,0,3.03,0.81,2.99,0.75
	c0.79,0.25,1.63-0.18,1.88-0.97c0,0,0-0.01,0-0.01l2.69-10.79c0.15,0.04,0.3,0.07,0.43,0.11c-0.14-0.05-0.28-0.1-0.43-0.14l1.92-7.7
	c0.12-1.19-0.73-2.25-1.92-2.39c0.07-0.04-2.99-0.74-2.99-0.74l1.09-4.39l5.67,1.42l-0.01,0.02c0.85,0.21,1.73,0.41,2.63,0.62
	l1.69-6.76l4.11,1.02l-1.65,6.63c1.1,0.25,2.22,0.51,3.3,0.77l1.64-6.58l4.11,1.02l-1.68,6.76
	C329.16,352.58,332.96,355.26,332.22,360.25L332.22,360.25z"/>
</svg>
