<?xml version="1.0" encoding="utf-8"?>
<!-- Generator: Adobe Illustrator 23.0.3, SVG Export Plug-In . SVG Version: 6.00 Build 0)  -->
<svg version="1.1" id="aac55e20-4295-4738-859e-026cde4431f5"
	 xmlns="http://www.w3.org/2000/svg" xmlns:xlink="http://www.w3.org/1999/xlink" x="0px" y="0px" viewBox="0 0 727.21 478.36"
	 style="enable-background:new 0 0 727.21 478.36;" xml:space="preserve">
<style type="text/css">
	.st0{fill:#06D6A0;}
	.st1{fill:#073B4C;}
	.st2{fill:#FFB8B8;}
	.st3{fill:#E6E6E6;}
	.st4{opacity:0.2;enable-background:new    ;}
	.st5{fill:#3F3D56;}
	.st6{fill:#A0616A;}
	.st7{fill:#CCCCCC;}
</style>
<path class="st0" d="M368.6,78.35l5.61-22.65l-13.84-3.41l-5.49,22.03c-3.62-0.9-7.34-1.71-11.04-2.59l5.53-22.19l-13.77-3.41
	l-5.65,22.61c-3-0.68-5.93-1.37-8.79-2.07l-18.99-4.74l-3.67,14.71c0,0,10,2.29,10,2.49c5.58,1.4,6.59,5.12,6.42,8l-6.43,25.79
	c0.49,0.12,0.97,0.27,1.43,0.46l-1.45-0.36l-9.01,36.11c-0.82,2.63-3.61,4.1-6.25,3.29c-0.01,0-0.02-0.01-0.03-0.01h-0.03
	c0.14,0.2-10.02-2.49-10.02-2.49l-6.83,15.77l17.92,4.47c3.41,0.84,6.6,1.71,9.81,2.53l-5.7,22.88l13.75,3.41l5.65-22.65
	c3.65,0.99,7.32,1.93,10.97,2.85l-5.63,22.54l13.77,3.41l5.7-22.85c23.48,4.44,41.16,2.65,48.59-18.58
	c5.99-17.07-0.29-26.96-12.66-33.4c8.99-2.08,15.79-7.99,17.59-20.22l0.15-0.07C398.7,93.31,385.97,84.34,368.6,78.35z
	 M364.74,154.15c-4.25,17.07-33.06,7.85-42.39,5.55l7.56-30.33c9.3,2.34,39.25,6.95,34.8,24.78L364.74,154.15z M369.01,109.78
	c-3.89,15.56-27.85,7.65-35.63,5.72l6.83-27.49c7.77,1.93,32.82,5.55,28.7,21.78H369.01z"/>
<path class="st1" d="M339.19,254.48c-70.27,0-127.24-56.97-127.24-127.24S268.91,0,339.19,0s127.24,56.97,127.24,127.24
	C466.35,197.48,409.43,254.4,339.19,254.48z M339.19,3.41c-68.39,0-123.83,55.44-123.83,123.83s55.44,123.83,123.83,123.83
	s123.83-55.44,123.83-123.83l0,0C462.94,58.88,407.54,3.49,339.19,3.41z M334.92,206.55l-17.09-4.23l5.63-22.55
	c-2.55-0.64-5.12-1.31-7.67-1.99l-5.64,22.61l-17.07-4.23l5.7-22.9c-0.67-0.17-1.33-0.35-2-0.52c-2-0.52-4.03-1.06-6.15-1.57
	l-19.88-4.96l8.21-18.96l1.42,0.38c1.97,0.52,4.04,1.06,5.77,1.5l-0.24-0.36l4.54,1.36c1.74,0.57,3.61-0.37,4.18-2.11
	c0-0.01,0.01-0.03,0.01-0.04l8.6-34.46l-0.01,0l6.81-27.28c0.13-3.2-1.55-5.2-5.14-6.1l-3.83-0.96l0.09-0.06
	c-1.81-0.44-4.09-0.97-6.23-1.46l-1.7-0.39l4.5-18.06l20.65,5.16c2.32,0.57,4.69,1.13,7.12,1.68l5.66-22.64l17.08,4.23l-5.52,22.17
	c0.97,0.23,1.94,0.45,2.91,0.67c1.61,0.37,3.22,0.74,4.81,1.12l5.5-22.03l17.15,4.23l-5.65,22.8c13.55,4.86,30.17,13.59,27.27,33.02
	l-0.14,0.93l-0.16,0.07c-1.69,9.84-6.69,16.39-14.87,19.53c11.95,7.64,15.22,18.63,10.01,33.48c-8.23,23.54-29.15,23.54-48.93,19.99
	L334.92,206.55z M321.97,199.82l10.46,2.59l5.68-22.76l1.58,0.3c27.02,5.1,40.53,0.04,46.66-17.47c5.1-14.52,1.33-24.47-11.84-31.32
	l-4.1-2.13l4.51-1.04c9.41-2.18,14.74-8.33,16.29-18.81l0.14-0.93l0.14-0.06c1.53-13.1-6.72-22.03-26.6-28.89l-1.48-0.51l5.58-22.5
	l-10.53-2.6l-5.5,22.04l-1.66-0.41c-2.11-0.53-4.25-1.02-6.4-1.51c-1.54-0.35-3.08-0.71-4.62-1.08l-1.67-0.4l5.53-22.2l-10.46-2.59
	l-5.64,22.58l-1.63-0.37c-3.01-0.69-5.96-1.37-8.82-2.07l-17.34-4.33l-2.83,11.37c2.83,0.56,5.64,1.27,8.39,2.13
	c5.15,1.31,7.94,4.86,7.65,9.75l-0.05,0.31l-6.05,24.24l0.02,0.01l-0.41,1.54l-0.08-0.02l-0.03,0.1l0.09,0.02l-9.01,36.11
	c-1.06,3.56-4.8,5.59-8.36,4.53c-0.03-0.01-0.07-0.02-0.1-0.03l0-0.02c-1.3-0.18-3.72-0.8-8.55-2.08l-5.44,12.57l15.97,3.98
	c2.13,0.52,4.18,1.06,6.2,1.59c1.21,0.32,2.42,0.63,3.63,0.94l1.64,0.42l-5.7,22.87l10.44,2.59l5.66-22.68l1.68,0.45
	c3.62,0.98,7.3,1.94,10.94,2.84l1.66,0.41L321.97,199.82z M344.6,165.29c-8.26,0-17.31-2.38-23.14-3.91
	c-1.01-0.27-1.91-0.5-2.68-0.69l-1.66-0.41l8.39-33.64l1.66,0.42c0.94,0.24,2.09,0.49,3.39,0.79c9.5,2.14,25.39,5.72,31.09,14.97
	c1.67,2.67,2.36,5.84,1.95,8.97h0.14l-0.49,2.12c-0.82,3.63-3.1,6.76-6.31,8.64C353.52,164.56,349.18,165.29,344.6,165.29
	L344.6,165.29z M321.25,157.8c0.34,0.09,0.7,0.18,1.07,0.28c7.97,2.1,24.55,6.45,32.86,1.53c2.15-1.24,3.75-3.25,4.48-5.62
	l0.23-0.91c0.83-2.86,0.41-5.94-1.15-8.47c-4.95-8.03-20.55-11.54-28.94-13.43c-0.64-0.14-1.25-0.28-1.81-0.41L321.25,157.8z
	 M350.8,120.26c-6.78,0-14.03-1.93-18.72-3.18c-0.86-0.23-1.63-0.43-2.28-0.6l-1.66-0.41l7.65-30.81l1.66,0.41
	c0.77,0.19,1.71,0.4,2.77,0.63c7.79,1.72,20.83,4.6,25.77,12.61c1.57,2.53,2.2,5.53,1.8,8.48h0.13l-0.43,2.12
	c-0.77,3.48-2.94,6.49-6.02,8.31C358.2,119.58,354.51,120.41,350.8,120.26L350.8,120.26z M332.27,113.61
	c0.22,0.06,0.45,0.12,0.69,0.18c6.91,1.84,19.76,5.26,26.79,1.11c1.81-1.05,3.2-2.69,3.94-4.64l0.4-1.57c0.81-2.68,0.45-5.58-1-7.98
	c-4.18-6.78-16.82-9.57-23.6-11.07c-0.42-0.09-0.82-0.18-1.2-0.27L332.27,113.61z"/>
<path class="st2" d="M404.68,227.21c3.22-4.53,9.5-5.59,14.03-2.37c0.8,0.57,1.51,1.25,2.11,2.02l33.83-11.5l-4.69,17.97
	l-31.41,8.17c-4.62,3.13-10.91,1.92-14.04-2.7C402.13,235.28,402.2,230.66,404.68,227.21L404.68,227.21z"/>
<path class="st3" d="M670.43,476.92c2.49-26.85,9.38-53.11,20.38-77.73c3.07-6.85,6.44-13.55,10.13-20.1
	c0.95-1.69-1.64-3.2-2.59-1.51c-13.4,23.86-22.79,49.75-27.79,76.66c-1.39,7.51-2.44,15.08-3.14,22.7
	C667.25,478.84,670.25,478.83,670.43,476.92L670.43,476.92z"/>
<circle class="st3" cx="708.21" cy="364.9" r="19"/>
<path class="st3" d="M672.37,477.43c1.62-17.42,6.09-34.46,13.22-50.43c1.99-4.45,4.18-8.79,6.57-13.04
	c0.26-0.47,0.08-1.06-0.39-1.32c-0.45-0.24-1.01-0.1-1.29,0.34c-8.69,15.48-14.78,32.28-18.03,49.73c-0.9,4.87-1.58,9.78-2.03,14.72
	C670.31,478.67,672.26,478.67,672.37,477.43L672.37,477.43z"/>
<circle class="st3" cx="696.88" cy="404.75" r="12.33"/>
<path class="st3" d="M669.92,476.26c-9.44-14.73-16.4-30.91-20.59-47.9c-1.17-4.73-2.11-9.5-2.84-14.32
	c-0.09-0.53-0.59-0.89-1.12-0.8c-0.51,0.09-0.86,0.55-0.81,1.06c2.67,17.55,8.2,34.54,16.37,50.3c2.29,4.4,4.77,8.68,7.45,12.86
	C669.06,478.52,670.59,477.31,669.92,476.26L669.92,476.26z"/>
<circle class="st3" cx="644.54" cy="403.89" r="12.33"/>
<path class="st2" d="M571.31,298.52c3.06-4.64,1.78-10.87-2.86-13.93c-0.49-0.33-1.02-0.61-1.56-0.84l2.59-35.64l-16.2,9.07
	l0.02,32.45c-1.86,5.26,0.89,11.04,6.16,12.91C563.86,304.1,568.76,302.44,571.31,298.52L571.31,298.52z"/>
<path class="st0" d="M567.28,159.98l4.43,113.42l-18-1l-4-119l3.8-1.79c4.83-2.27,10.59-0.2,12.86,4.63
	C566.92,157.41,567.23,158.68,567.28,159.98z"/>
<polygon class="st2" points="511.61,466.23 499.35,466.23 493.52,418.95 511.61,418.95 "/>
<path class="st1" d="M490.59,462.73h23.64l0,0v14.89l0,0h-38.53l0,0l0,0C475.71,469.4,482.37,462.73,490.59,462.73L490.59,462.73z"
	/>
<polygon class="st2" points="613.61,451.58 602.49,456.73 577.33,416.27 593.75,408.67 "/>
<path class="st1" d="M593.07,457.23l21.46-9.93l0,0l6.25,13.51l0,0L585.82,477l0,0l0,0C582.36,469.54,585.61,460.69,593.07,457.23z"
	/>
<path class="st1" d="M482.5,311.91l12.64,144.29l17-2l12.56-131.8l69.44,125.8l18-5c0,0-57.94-173.3-62.44-187.8
	c-4.93-15.9-44-22-44-22l-1.5-1.5C487.42,254.49,480.7,283.82,482.5,311.91z"/>
<circle class="st2" cx="549.86" cy="114.53" r="24.56"/>
<path class="st0" d="M565.28,161.92l-17.07,88.97c0,0-25.94-5.18-35.18-11.42c-3.66-2.48-6.98-5.04-9.78-7.36
	c-0.55-0.45-1.07-0.9-1.58-1.33c-4.62-3.95-7.46-6.89-7.46-6.89s1.48-7.25,3.29-15.83c2.02-9.61,4.47-20.9,5.72-25.51
	c2.75-10.11,12.19-21.89,19.55-29.91c5.43-5.93,13.69-8.37,21.47-6.36l13.32,3.44C562.95,151.11,566.33,156.46,565.28,161.92z"/>
<path class="st4" d="M524,200.78c0,0-9.18,19.08-22.33,30c-4.62-3.95-7.46-6.89-7.46-6.89s1.48-7.25,3.29-15.83
	C508.52,202.24,519.88,198.57,524,200.78z"/>
<path class="st0" d="M540.28,165.86c-0.91-0.46-1.85-0.84-2.83-1.12c-4.05-1.11-8.39-0.11-11.55,2.66l-53.96,39.52l-42.91,14.43
	l7.75,18.34l63.98-15.62l42.43-37.71c5.08-4.88,5.25-12.95,0.38-18.03C542.61,167.33,541.5,166.5,540.28,165.86z"/>
<path class="st1" d="M551.31,138.87c3.5-5.23,6.25-12.49,2.41-17.47c-3.8-4.91-11.29-4.19-17.11-6.36
	c-8.1-3.03-12.8-12.55-11.34-21.08s8.31-15.59,16.46-18.49s17.35-1.95,25.33,1.38c9.83,4.1,18.26,12.03,21.8,22.08
	s1.65,22.11-5.69,29.83c-7.86,8.28-20.21,10.48-31.62,10.35"/>
<path class="st1" d="M589.88,109.91c1,5.59,7.13,8.77,12.77,9.46s11.47-0.2,16.96,1.27c9.67,2.58,16.05,11.89,19.57,21.27
	s5.07,19.5,9.63,28.41s13.41,16.77,23.39,15.94c-5.25,13.21-20.21,19.66-33.41,14.42c-7.13-2.83-12.62-8.69-14.98-15.99
	c-3.67-11.32,0.54-24.81-5.87-34.83c-3.55-5.55-9.67-8.81-15.58-11.71s-12.11-5.89-16.07-11.15c-3.96-5.26-4.75-13.56,0.13-17.98"/>
<path class="st5" d="M709.48,478.14H389.19c-0.66,0-1.19-0.53-1.19-1.19s0.53-1.19,1.19-1.19c0,0,0.01,0,0.01,0h320.29
	c0.66,0,1.19,0.53,1.19,1.19S710.15,478.14,709.48,478.14C709.49,478.14,709.49,478.14,709.48,478.14z"/>
<path class="st5" d="M321.48,478.14H1.19c-0.66,0-1.19-0.53-1.19-1.19c0-0.66,0.53-1.19,1.19-1.19c0,0,0.01,0,0.01,0h320.29
	c0.66,0,1.19,0.54,1.19,1.19C322.67,477.61,322.14,478.14,321.48,478.14z"/>
<polygon class="st6" points="205.8,465.13 217.52,461.54 209.23,414.62 191.93,419.93 "/>
<path class="st1" d="M243.46,465.48l-36.84,11.3l0,0l-4.37-14.23l0,0l22.6-6.94C232.73,453.21,241.05,457.62,243.46,465.48
	L243.46,465.48L243.46,465.48z"/>
<polygon class="st6" points="101.8,465.4 114.06,465.4 119.89,418.11 101.8,418.12 "/>
<path class="st1" d="M137.71,476.79l-38.53,0l0,0l0-14.89l0,0l23.64,0C131.04,461.9,137.71,468.56,137.71,476.79L137.71,476.79
	L137.71,476.79z"/>
<path class="st6" d="M104.92,308.33c-3.81-3.34-4.19-9.12-0.85-12.93c0.36-0.41,0.75-0.78,1.17-1.12l9.51-119.69l19.33,4.83
	L118.6,296.17c2.91,4.17,1.88,9.92-2.3,12.82C112.81,311.43,108.11,311.15,104.92,308.33z"/>
<circle class="st6" cx="150.63" cy="104.6" r="24.56"/>
<path class="st7" d="M117.09,176.96c-5.84-8.01-6.02-19.05,0.27-26.71c4.1-5,10.97-9,22.43-9c30.54,0,42.13,24.22,42.13,24.22
	s12.64,23.17,5.27,44.23s-7.37,23.17-7.37,23.17l-48.45-4.21C131.36,228.66,139.53,207.77,117.09,176.96z"/>
<path class="st7" d="M102.15,197.93l10.44-34.15c2.64-8.62,11.76-13.48,20.39-10.84c0.93,0.29,1.84,0.65,2.71,1.1l0,0
	c7.65,3.96,10.92,13.18,7.46,21.07l-13.27,30.22L102.15,197.93z"/>
<path class="st1" d="M178.75,227.61l41.07,212.75l-22.12,6.32L144,306.6l-24.22,143.24l-23.17,3.16c0,0-10.16-189.52,34.76-224.33
	L178.75,227.61z"/>
<path class="st6" d="M233.96,205.52c-0.36,0.42-0.68,0.87-0.96,1.35l-49.54,2.4l-9.54-29.12l-16.56,7.87l15.59,43.37l61.26-11.98
	c3.92,4.27,10.55,4.57,14.83,0.65c4.27-3.92,4.57-10.55,0.65-14.83c-3.92-4.27-10.55-4.57-14.83-0.65
	C234.54,204.88,234.24,205.19,233.96,205.52L233.96,205.52z"/>
<path class="st7" d="M149.9,168.52c-1.05-8.95,5.35-17.07,14.31-18.12c0.97-0.11,1.95-0.14,2.93-0.08l0,0
	c8.6,0.55,15.29,7.68,15.31,16.29v33l-28.37,4.36L149.9,168.52z"/>
<path class="st1" d="M156.04,129.38c-3.69-0.02-6.53-3.9-6.36-7.58s2.64-6.92,5.62-9.09s6.47-3.49,9.8-5.09s6.62-3.59,8.67-6.65
	c2.52-4.07,2.9-9.1,1.02-13.5c-1.91-4.34-5.19-7.93-9.33-10.22c-6.17-3.58-13.45-4.73-20.42-3.23c-6.89,1.51-17.15,5.7-21.19,11.48
	l-4.21,11.46c-4.29,5.16-0.97,12.81,1.67,18.98s8.25,10.81,14.58,13.01c6.43,2.06,13.3,2.27,19.84,0.59"/>
<path class="st1" d="M133.59,91.22c-1.81-2.9-4.94-4.74-8.19-5.83c-13.48-4.5-28.05,2.78-32.55,16.25
	c-0.73,2.18-1.16,4.45-1.29,6.75c-0.34,6.31,1.63,12.49,2.8,18.71c1.16,6.22,1.39,13.08-2.03,18.4c-2.61,4.05-6.96,6.6-11.26,8.77
	c-3.58,1.81-7.46,3.52-11.45,3.15s-8.02-3.53-7.91-7.54c-1.34,2.88-2.24,5.94-2.68,9.08c-0.28,3.16,0.5,6.56,2.78,8.76
	c3.31,3.2,8.56,2.96,13.12,2.27c9.86-1.49,19.84-4.3,27.63-10.52s12.95-16.47,10.9-26.23c-0.86-4.08-2.87-7.8-4.5-11.63
	s-2.9-8.03-2.15-12.12c0.9-4.27,3.64-7.93,7.49-9.98c3.85-2,8.25-2.67,12.52-1.9c2.8,0.46,6.29,1.17,7.95-1.13
	c0.9-1.49,0.86-3.36-0.09-4.81c-0.96-1.41-2.18-2.61-3.59-3.56"/>
</svg>
